<svg xmlns="http://www.w3.org/2000/svg" width="219" height="50" fill="none"><path fill="#085B69" d="M18.809 4.807h24.033l-17.67 26.507H1.14L18.809 4.807Z"/><path fill="#FC5F2A" d="m19.861 33.772-6.843 10.266H38.19l17.67-26.507H37.28l-10.825 16.24h-6.594Z"/><path fill="#fff" d="M71.52 39V13.08h10.476c.252 0 .564.012.936.036.372.012.726.048 1.062.108 1.44.228 2.64.72 3.6 1.476a6.948 6.948 0 0 1 2.178 2.862c.48 1.152.72 2.424.72 3.816 0 2.064-.528 3.846-1.584 5.346-1.056 1.488-2.64 2.418-4.752 2.79l-1.53.18h-7.344V39H71.52Zm15.156 0-5.112-10.548 3.798-.972L90.978 39h-4.302ZM75.282 26.13h6.57c.24 0 .504-.012.792-.036.3-.024.582-.066.846-.126.768-.18 1.386-.51 1.854-.99a4.359 4.359 0 0 0 1.008-1.692 6.216 6.216 0 0 0 .306-1.908c0-.636-.102-1.266-.306-1.89a4.208 4.208 0 0 0-1.008-1.674c-.468-.492-1.086-.828-1.854-1.008a4.608 4.608 0 0 0-.846-.144 9.596 9.596 0 0 0-.792-.036h-6.57v9.504Zm27.014 13.41c-1.944 0-3.63-.438-5.058-1.314-1.428-.876-2.532-2.082-3.312-3.618-.768-1.548-1.152-3.33-1.152-5.346 0-2.028.396-3.81 1.188-5.346.792-1.548 1.902-2.748 3.33-3.6 1.428-.864 3.096-1.296 5.004-1.296 1.944 0 3.63.438 5.058 1.314 1.428.876 2.532 2.082 3.312 3.618.78 1.536 1.17 3.306 1.17 5.31 0 2.028-.396 3.816-1.188 5.364-.78 1.536-1.884 2.742-3.312 3.618-1.428.864-3.108 1.296-5.04 1.296Zm0-3.546c1.86 0 3.246-.624 4.158-1.872.924-1.26 1.386-2.88 1.386-4.86 0-2.028-.468-3.648-1.404-4.86-.924-1.224-2.304-1.836-4.14-1.836-1.26 0-2.298.288-3.114.864-.816.564-1.422 1.35-1.818 2.358-.396.996-.594 2.154-.594 3.474 0 2.04.468 3.672 1.404 4.896.936 1.224 2.31 1.836 4.122 1.836Zm20.858 3.546c-1.944 0-3.63-.438-5.058-1.314-1.428-.876-2.532-2.082-3.312-3.618-.768-1.548-1.152-3.33-1.152-5.346 0-2.028.396-3.81 1.188-5.346.792-1.548 1.902-2.748 3.33-3.6 1.428-.864 3.096-1.296 5.004-1.296 1.944 0 3.63.438 5.058 1.314 1.428.876 2.532 2.082 3.312 3.618.78 1.536 1.17 3.306 1.17 5.31 0 2.028-.396 3.816-1.188 5.364-.78 1.536-1.884 2.742-3.312 3.618-1.428.864-3.108 1.296-5.04 1.296Zm0-3.546c1.86 0 3.246-.624 4.158-1.872.924-1.26 1.386-2.88 1.386-4.86 0-2.028-.468-3.648-1.404-4.86-.924-1.224-2.304-1.836-4.14-1.836-1.26 0-2.298.288-3.114.864-.816.564-1.422 1.35-1.818 2.358-.396.996-.594 2.154-.594 3.474 0 2.04.468 3.672 1.404 4.896.936 1.224 2.31 1.836 4.122 1.836ZM137.351 39V18.876c0-.492.018-1.014.054-1.566a7.071 7.071 0 0 1 .306-1.656c.18-.552.474-1.056.882-1.512.492-.54 1.032-.924 1.62-1.152a5.82 5.82 0 0 1 1.746-.396 26.667 26.667 0 0 1 1.62-.054h2.448v3.096h-2.268c-.888 0-1.554.222-1.998.666-.432.432-.648 1.05-.648 1.854V39h-3.762Zm-3.222-16.416V19.56h11.898v3.024h-11.898Zm15.678-6.21V12.72h3.762v3.654h-3.762Zm0 22.626V19.56h3.762V39h-3.762Zm21.74 0v-9.558c0-.756-.066-1.53-.198-2.322a6.96 6.96 0 0 0-.72-2.232 4.224 4.224 0 0 0-1.494-1.656c-.636-.42-1.47-.63-2.502-.63-.672 0-1.308.114-1.908.342-.6.216-1.128.57-1.584 1.062-.444.492-.798 1.14-1.062 1.944-.252.804-.378 1.782-.378 2.934l-2.34-.882c0-1.764.33-3.318.99-4.662.66-1.356 1.608-2.412 2.844-3.168 1.236-.756 2.73-1.134 4.482-1.134 1.344 0 2.472.216 3.384.648.912.432 1.65 1.002 2.214 1.71a7.653 7.653 0 0 1 1.314 2.286c.3.828.504 1.638.612 2.43.108.792.162 1.488.162 2.088V39h-3.816Zm-13.662 0V19.56h3.366v5.616h.45V39h-3.816Zm21.447-22.626V12.72h3.762v3.654h-3.762Zm0 22.626V19.56h3.762V39h-3.762Zm19.211 0c-1.224.24-2.424.342-3.6.306-1.176-.036-2.226-.264-3.15-.684a4.293 4.293 0 0 1-2.088-1.98c-.42-.804-.648-1.62-.684-2.448-.024-.84-.036-1.788-.036-2.844V14.16h3.78v17.01c0 .78.006 1.458.018 2.034.024.576.15 1.062.378 1.458.432.744 1.116 1.17 2.052 1.278.948.096 2.058.054 3.33-.126V39Zm-13.284-16.416V19.56h13.284v3.024h-13.284Zm18.403 25.056 3.762-10.242.054 3.024L199 19.56h3.924l6.336 16.11h-1.152l6.048-16.11h3.816l-10.728 28.08h-3.582Z"/></svg>