<svg xmlns="http://www.w3.org/2000/svg" width="146" height="34" fill="none"><path fill="#085B69" d="M12.54 3.538h16.02L16.782 21.21H.76L12.54 3.538Z"/><path fill="#FC5F2A" d="m13.241 22.848-4.562 6.844H25.46l11.78-17.671H24.854l-7.217 10.827H13.24Z"/><path fill="#060607" d="M47.68 26V8.72h6.984c.168 0 .376.008.624.024.248.008.484.032.708.072.96.152 1.76.48 2.4.984a4.632 4.632 0 0 1 1.452 1.908c.32.768.48 1.616.48 2.544 0 1.376-.352 2.564-1.056 3.564-.704.992-1.76 1.612-3.168 1.86l-1.02.12h-4.896V26H47.68Zm10.104 0-3.408-7.032 2.532-.648L60.652 26h-2.868Zm-7.596-8.58h4.38c.16 0 .336-.008.528-.024.2-.016.388-.044.564-.084.512-.12.924-.34 1.236-.66.312-.328.536-.704.672-1.128a4.032 4.032 0 0 0 0-2.532 2.806 2.806 0 0 0-.672-1.116c-.312-.328-.724-.552-1.236-.672a3.072 3.072 0 0 0-.564-.096 6.398 6.398 0 0 0-.528-.024h-4.38v6.336Zm18.01 8.94c-1.297 0-2.42-.292-3.373-.876a5.904 5.904 0 0 1-2.208-2.412c-.512-1.032-.768-2.22-.768-3.564 0-1.352.264-2.54.792-3.564.528-1.032 1.268-1.832 2.22-2.4.952-.576 2.064-.864 3.336-.864 1.296 0 2.42.292 3.372.876a5.904 5.904 0 0 1 2.208 2.412c.52 1.024.78 2.204.78 3.54 0 1.352-.264 2.544-.792 3.576a5.904 5.904 0 0 1-2.208 2.412c-.952.576-2.072.864-3.36.864Zm0-2.364c1.24 0 2.163-.416 2.771-1.248.616-.84.924-1.92.924-3.24 0-1.352-.312-2.432-.936-3.24-.616-.816-1.536-1.224-2.76-1.224-.84 0-1.532.192-2.076.576-.544.376-.948.9-1.212 1.572-.264.664-.396 1.436-.396 2.316 0 1.36.312 2.448.936 3.264.624.816 1.54 1.224 2.748 1.224Zm13.904 2.364c-1.296 0-2.42-.292-3.372-.876a5.904 5.904 0 0 1-2.208-2.412c-.512-1.032-.768-2.22-.768-3.564 0-1.352.264-2.54.792-3.564.528-1.032 1.268-1.832 2.22-2.4.952-.576 2.064-.864 3.336-.864 1.296 0 2.42.292 3.372.876a5.904 5.904 0 0 1 2.208 2.412c.52 1.024.78 2.204.78 3.54 0 1.352-.264 2.544-.792 3.576a5.904 5.904 0 0 1-2.208 2.412c-.952.576-2.072.864-3.36.864Zm0-2.364c1.24 0 2.164-.416 2.772-1.248.616-.84.924-1.92.924-3.24 0-1.352-.312-2.432-.936-3.24-.616-.816-1.536-1.224-2.76-1.224-.84 0-1.532.192-2.076.576-.544.376-.948.9-1.212 1.572-.264.664-.396 1.436-.396 2.316 0 1.36.312 2.448.936 3.264.624.816 1.54 1.224 2.748 1.224ZM91.567 26V12.584c0-.328.012-.676.036-1.044.024-.376.092-.744.204-1.104.12-.368.316-.704.588-1.008.328-.36.688-.616 1.08-.768a3.88 3.88 0 0 1 1.164-.264c.392-.024.752-.036 1.08-.036h1.632v2.064H95.84c-.592 0-1.036.148-1.332.444-.288.288-.432.7-.432 1.236V26h-2.508ZM89.42 15.056V13.04h7.932v2.016H89.42Zm10.452-4.14V8.48h2.508v2.436h-2.508Zm0 15.084V13.04h2.508V26h-2.508Zm14.494 0v-6.372c0-.504-.044-1.02-.132-1.548a4.64 4.64 0 0 0-.48-1.488 2.816 2.816 0 0 0-.996-1.104c-.424-.28-.98-.42-1.668-.42a3.55 3.55 0 0 0-1.272.228c-.4.144-.752.38-1.056.708-.296.328-.532.76-.708 1.296-.168.536-.252 1.188-.252 1.956l-1.56-.588c0-1.176.22-2.212.66-3.108a4.959 4.959 0 0 1 1.896-2.112c.824-.504 1.82-.756 2.988-.756.896 0 1.648.144 2.256.432.608.288 1.1.668 1.476 1.14.384.464.676.972.876 1.524.2.552.336 1.092.408 1.62.072.528.108.992.108 1.392V26h-2.544Zm-9.108 0V13.04h2.244v3.744h.3V26h-2.544Zm14.297-15.084V8.48h2.508v2.436h-2.508Zm0 15.084V13.04h2.508V26h-2.508Zm12.808 0c-.816.16-1.616.228-2.4.204-.784-.024-1.484-.176-2.1-.456a2.862 2.862 0 0 1-1.392-1.32 3.86 3.86 0 0 1-.456-1.632 67.035 67.035 0 0 1-.024-1.896V9.44h2.52v11.34c0 .52.004.972.012 1.356.016.384.1.708.252.972.288.496.744.78 1.368.852.632.064 1.372.036 2.22-.084V26Zm-8.856-10.944V13.04h8.856v2.016h-8.856Zm12.269 16.704 2.508-6.828.036 2.016-5.652-13.908h2.616l4.224 10.74h-.768l4.032-10.74h2.544l-7.152 18.72h-2.388Z"/></svg>