<svg xmlns="http://www.w3.org/2000/svg" width="229" height="129" fill="none"><path fill="#394149" d="M178.769 31.848c1.371 2.156 2.687 4.815 2.04 7.665-2.233-1.345-4.029-3.54-5.453-5.708-1.435-2.182-2.924-4.503-3.434-7.192 2.816.758 5.338 2.862 6.847 5.235ZM47.911 39.513c-.736-2.852.769-5.512 2.337-7.667 1.726-2.373 4.605-4.477 7.821-5.233-.584 2.69-2.287 5.011-3.926 7.193-1.628 2.168-3.681 4.363-6.232 5.707Z"/><path fill="#394149" d="M46.376 45.076c.556-2.218.544-4.647.014-6.727-.466-1.83-1.144-4.414-3.375-5.286-1.622 2.435-2.274 5.751-1.329 8.236.684 1.798 1.913 4.174 4.462 4.542 2.34.505 4.704-.663 6.572-1.627 2.078-1.073 4.112-2.778 5.348-4.806-2.267-1.072-4.85-.202-6.793.631-2.094.898-4.018 2.826-4.9 5.037Zm44.037 2.177v-11.61h-4.066v4.23h-6.1v-4.23h-4.065v11.61h4.066v-4.215h6.1v4.215h4.065Zm13.604-11.61h4.509l-6.398 7.78v3.83h-4.099v-3.816l-6.322-7.794h4.646l3.779 4.644 3.885-4.644Z"/><path fill="#394149" fill-rule="evenodd" d="M121.607 36.633c.735.622 1.151 1.672 1.151 3.195 0 1.243-.291 2.174-.846 2.825-.749.917-1.983 1.331-3.591 1.346-.499.015-4.77 0-4.77 0v3.254h-3.731v-11.61h8.445c1.498 0 2.635.325 3.342.99Zm-2.759 4.097c.111-.207.166-.473.166-.843 0-.384-.069-.71-.194-.887-.236-.37-.68-.547-1.401-.547h-3.896v2.84h3.869c.776 0 1.234-.193 1.456-.563Z" clip-rule="evenodd"/><path fill="#394149" d="M136.989 44.369v2.884h-11.644v-11.61h11.546v2.898h-7.829v1.494h7.603v2.825h-7.603v1.509h7.927Z"/><path fill="#394149" fill-rule="evenodd" d="M152.02 36.826c.513.547.752 1.301.752 2.352 0 .902-.212 1.67-.567 2.188-.397.562-1.007 1.036-1.759 1.154l3.363 4.733h-4.229l-2.766-4.097h-3.448v4.097h-3.789v-11.61h8.868c1.759 0 2.91.443 3.575 1.183Zm-3.064 3.328c.1-.178.127-.415.127-.607 0-.221-.027-.458-.127-.606-.199-.385-.595-.488-1.192-.488h-4.384v2.115h4.455c.61 0 .979-.118 1.121-.414Z" clip-rule="evenodd"/><path fill="#394149" d="M134.402 61.704c0-2.621-1.618-3.999-5.393-4.42a123.63 123.63 0 0 0-3.552-.364c-2.92-.325-3.794-.497-3.794-1.262 0-.69.688-1.014 3.31-1.014 1.86 0 2.901.363 3.31.918.205.268.279.478.298.689h5.356a5.338 5.338 0 0 0-.54-1.684c-.967-1.914-3.291-3.444-8.293-3.444-5.635 0-8.722 2.047-8.722 4.726 0 2.583 1.748 4.095 6.471 4.535.534.047 1.681.158 2.621.25l.058.005.01.002h.004l.506.05c2.473.267 3.143.44 3.143 1.243 0 .746-.651 1.148-3.385 1.148-2.12 0-3.366-.325-3.812-.88a1.903 1.903 0 0 1-.353-.804h-5.356c.056.383.149.995.353 1.493.912 2.104 3.292 3.712 8.815 3.712 5.932 0 8.945-1.722 8.945-4.899Z"/><path fill="#394149" fill-rule="evenodd" d="M94.76 65.025c.553-.69.828-1.735.828-2.8 0-.907-.22-1.775-.68-2.347-.552-.769-1.526-1.321-2.556-1.459.699-.099 1.36-.493 1.747-1.006.478-.611.699-1.44.699-2.445 0-1.006-.276-1.893-.901-2.564-.7-.769-1.968-1.281-3.954-1.281H77.475v15.48h12.817c2.041 0 3.623-.474 4.469-1.578Zm-5.075-9.13c0 .375-.11.69-.294.907-.257.256-.735.355-1.36.355h-5.738v-2.524h5.609c.699 0 1.177.098 1.434.355.24.217.35.532.35.907Zm.552 6.783c-.294.296-.809.415-1.673.415h-6.27v-2.584h6.325c.809 0 1.287.118 1.563.375.22.236.313.532.313.927 0 .374-.074.67-.258.867Z" clip-rule="evenodd"/><path fill="#394149" d="M114.995 62.757v3.846h-16.82v-15.48h16.678v3.865h-11.308v1.991h10.982v3.767h-10.982v2.011h11.45Zm38.814-7.749v-3.885h-18.113v3.885h6.398v11.595h5.296V55.008h6.419Zm0 24.409h-.957l-.068-.754c-.292.382-.91.84-2.215.84-2.205 0-3.229-1.088-3.229-3.866 0-2.147.652-3.874 3.344-3.874 2.333 0 3.044 1.25 3.078 2.596h-1.166c-.034-.878-.513-1.69-1.888-1.69-1.655 0-2.134.812-2.134 2.997 0 2.281.596 2.997 2.158 2.997 1.095 0 1.736-.496 1.947-1.088v-1.422h-2.356v-.869h3.473v2.196c0 .655.009 1.355.011 1.707l.002.168v.062Z"/><path fill="#394149" fill-rule="evenodd" d="M77.584 77.558h2.38l.492 1.945h.9l-1.97-7.74h-1.097l-2.107 7.74h.892l.51-1.945Zm2.167-.87h-1.938s.841-3.127.858-3.195l.145-.743.094.513.042.23c.008.048.799 3.195.799 3.195Z" clip-rule="evenodd"/><path fill="#394149" d="M89.427 71.763h.986l-1.92 7.74H87.27s-1.366-6.02-1.366-6.275c-.01.255-1.406 6.275-1.406 6.275h-1.222l-1.92-7.74h1.108s1.49 6.127 1.49 6.372c0-.245 1.365-6.372 1.365-6.372h1.222s1.366 6.137 1.366 6.372c0-.235 1.52-6.372 1.52-6.372Z"/><path fill="#394149" fill-rule="evenodd" d="M95.14 77.558h-2.974l-.638 1.945h-1.115l2.635-7.74h1.37l2.464 7.74h-1.126l-.616-1.945Zm-2.687-.87h2.421s-.987-3.147-.998-3.195l-.08-.353-.09-.39s-.17.694-.18.743l-1.073 3.195Zm8.687-4.925c1.162 0 1.792.557 1.792 2.179 0 1.378-.506 1.837-1.03 1.994l1.449 3.567h-1.049l-1.343-3.372h-1.83v3.372h-.953v-7.74h2.964Zm-.143 3.488c.753 0 .934-.4.934-1.28 0-.996-.286-1.3-.982-1.3h-1.81v2.58h1.858Zm8.823.255c0 1.827-.136 2.57-.526 3.127-.39.538-1.004.87-1.998.87h-2.651v-7.74h2.582c.975 0 1.735.293 2.086.82.39.567.507 1.271.507 2.923Zm-2.729 3.078c.595 0 1.092-.156 1.345-.498.273-.372.351-1.124.351-2.58 0-1.222-.068-1.877-.351-2.297-.263-.362-.77-.518-1.364-.518h-1.443v5.893h1.462Z" clip-rule="evenodd"/><path fill="#394149" d="M120.478 71.763h.986l-1.92 7.74h-1.222s-1.366-6.02-1.366-6.275c-.01.255-1.407 6.275-1.407 6.275h-1.222l-1.92-7.74h1.109s1.489 6.127 1.489 6.372c0-.245 1.366-6.372 1.366-6.372h1.222s1.365 6.137 1.365 6.372c0-.235 1.52-6.372 1.52-6.372Zm3.573 0v7.74h-1.293v-7.74h1.293Zm6.469 0v7.74h-1.174l-3.011-6v6h-.99v-7.74h1.235l2.939 5.912v-5.912h1.001Zm6.469 0v7.74h-1.174l-3.01-6v6h-.991v-7.74h1.236l2.94 5.912v-5.912h.999Zm2.588 0v7.74h-1.294v-7.74h1.294Zm6.469 0v7.74h-1.174l-3.01-6v6h-.991v-7.74h1.236l2.94 5.912v-5.912h.999ZM89.047 96.344l-1.222-3.941-1.221 3.941H82.65l3.199 2.437-1.222 3.942 3.198-2.437 3.199 2.437-1.222-3.942 3.199-2.437h-3.954Zm14.232.001-1.222-3.942-1.222 3.942h-3.953l3.198 2.436-1.221 3.942 3.198-2.436 3.198 2.436-1.221-3.942 3.198-2.436h-3.953Zm12.938 0-1.222-3.942-1.221 3.942h-3.954l3.199 2.436-1.222 3.942 3.198-2.436 3.199 2.436-1.222-3.942 3.199-2.436h-3.954Zm14.232 0-1.222-3.942-1.222 3.942h-3.953l3.198 2.436-1.222 3.942 3.199-2.436 3.198 2.436-1.221-3.942 3.198-2.436h-3.953Zm13.43 0-1.068-3.942-1.069 3.942h-3.459l2.798 2.436-1.068 3.942 2.798-2.436 2.798 2.436-1.069-3.942 2.799-2.436h-3.46ZM38.775 51.39c1.145 1.623 2.917 3.655 5.501 3.597 2.35.109 4.38-1.38 5.979-2.622 1.722-1.339 3.276-3.296 3.932-5.412-2.403-.649-4.704.554-6.42 1.688-1.792 1.185-3.17 3.353-3.466 5.58-.023-2.231-.673-4.535-1.721-6.39-.959-1.697-2.294-3.99-4.677-4.448-.939 2.64-.64 5.869.872 8.008Z"/><path fill="#394149" d="M45.218 63.96c-2.391.375-4.724-.996-6.239-2.608-1.95-2.076-3.111-4.861-2.874-7.65 2.457.06 4.317 2.046 5.693 3.548 1.48 1.618 2.694 3.748 3.277 5.944-.257-2.189.529-4.552 1.987-6.013 1.407-1.41 3.379-2.946 5.831-2.7-.052 2.22-1.242 4.334-2.468 5.918-1.143 1.476-2.904 3.301-5.206 3.561Z"/><path fill="#394149" d="M41.136 72.197c2.107 1.427 4.663 2.84 7.349 1.77 2.203-.81 3.604-3.118 4.465-5.236.913-2.244 1.523-4.832 1.1-7.288-2.42.223-4.428 2.026-5.494 4.226-1.115 2.3-1.329 5.038-.473 7.449-1.265-2.48-3.115-4.488-5.075-6.343-1.782-1.686-4.349-3.462-6.934-3.128.492 3.325 2.442 6.775 5.062 8.55Z"/><path fill="#394149" d="M54.475 82.52c2.148-1.23 3.012-3.819 3.366-6.037.38-2.392.364-5.03-.673-7.3-2.492.667-4.203 2.816-4.768 5.17a9.115 9.115 0 0 0 1.359 7.254c-1.93-2.12-4.496-3.872-6.955-5.1-2.375-1.187-5.29-2.617-8.142-1.753 1.376 3.216 4.318 6.21 7.58 7.45 2.525.958 5.598 1.907 8.233.317Z"/><path fill="#394149" d="M64.382 83.338c.316 2.388.307 5.416-1.565 7.254-2.339 2.371-5.959 1.914-8.751 1.392-3.748-.701-7.968-3.233-10.23-6.604 2.763-1.506 6.14-.542 8.875.237l.156.045c3.052.87 6.305 2.27 9.025 4.184-2.17-1.943-3.752-4.794-3.83-7.668-.07-2.57 1.057-5.32 3.481-6.545 1.693 2.2 2.485 5.024 2.84 7.705Z"/><path fill="#394149" d="M75.58 97.836c1.427-2.687.013-5.841-1.115-8.172-1.333-2.756-3.154-5.564-5.76-7.581-2.502 2.132-2.264 5.183-1.52 7.834.885 3.153 3.952 5.84 7.128 7.371-3.679-1.356-7.696-2.17-11.518-2.41l-.387-.025c-3.07-.197-7.068-.455-9.514 1.767 3.699 3.109 8.953 4.902 13.585 4.809 3.103-.062 7.361-.425 9.1-3.593ZM183.608 45.08c-.878-2.214-2.801-4.145-4.894-5.045-1.944-.834-4.524-1.706-6.792-.636 1.234 2.03 3.266 3.736 5.342 4.81 1.866.966 4.23 2.136 6.569 1.633 2.55-.366 3.782-2.742 4.467-4.54.949-2.484.301-5.802-1.319-8.24-2.232.872-2.914 3.457-3.38 5.286-.532 2.081-.547 4.511.007 6.731Z"/><path fill="#394149" d="M181.728 48.637c1.652 1.185 2.92 3.353 3.193 5.578.024-2.23.627-4.532 1.595-6.386.886-1.696 2.122-3.99 4.321-4.446.864 2.641.585 5.872-.812 8.01-1.057 1.62-2.693 3.648-5.073 3.594-2.173.111-4.049-1.382-5.526-2.627-1.588-1.34-3.02-3.299-3.623-5.416 2.218-.648 4.341.557 5.925 1.693Z"/><path fill="#394149" d="M184.905 63.2c.261-2.19-.522-4.56-1.981-6.025-1.405-1.411-3.375-2.95-5.827-2.705.049 2.22 1.236 4.337 2.461 5.923 1.142 1.477 2.899 3.303 5.2 3.566 2.392.38 4.728-.992 6.246-2.605 1.952-2.076 3.115-4.861 2.883-7.651-2.459.056-4.32 2.043-5.698 3.545-1.485 1.62-2.701 3.753-3.284 5.953Z"/><path fill="#394149" d="M181.432 65.671c1.113 2.3 1.325 5.037.466 7.447 1.267-2.48 3.12-4.484 5.081-6.337 1.783-1.684 4.352-3.457 6.937-3.121-.494 3.323-2.448 6.77-5.07 8.542-2.106 1.423-4.659 2.832-7.342 1.768-2.207-.81-3.608-3.12-4.469-5.242-.912-2.243-1.519-4.83-1.094-7.285 2.42.225 4.427 2.028 5.491 4.228Z"/><path fill="#394149" d="M176.228 81.601a9.119 9.119 0 0 0 1.363-7.247c-.562-2.353-2.272-4.503-4.765-5.171-1.039 2.268-1.057 4.905-.68 7.297.352 2.214 1.212 4.796 3.347 6.031 2.638 1.602 5.719.654 8.248-.304 3.263-1.236 6.21-4.227 7.588-7.442-2.852-.866-5.768.563-8.145 1.747-2.458 1.225-5.025 2.972-6.956 5.09Z"/><path fill="#394149" d="M165.61 83.335c-.317 2.387-.312 5.415 1.559 7.254 2.336 2.372 5.957 1.917 8.749 1.398 3.75-.698 7.971-3.227 10.236-6.596-2.76-1.507-6.14-.547-8.874.23l-.158.045c-3.051.867-6.304 2.265-9.026 4.175 2.172-1.94 3.755-4.789 3.835-7.661.072-2.57-1.052-5.32-3.474-6.547-1.695 2.198-2.49 5.022-2.847 7.702Z"/><path fill="#394149" d="M162.968 101.429c-2.931-.065-6.953-.431-8.592-3.6l-.023-.043c-1.309-2.68.021-5.81 1.082-8.127 1.262-2.755 2.984-5.562 5.447-7.576 2.363 2.133 2.134 5.184 1.429 7.834-.839 3.152-3.737 5.837-6.739 7.366 3.475-1.353 7.27-2.164 10.88-2.402l.367-.025c2.901-.195 6.676-.449 8.984 1.774-3.496 3.105-8.46 4.896-12.835 4.799Z"/></svg>