<svg xmlns="http://www.w3.org/2000/svg" width="105" height="32" fill="none"><rect width="104.639" height="31" y=".5" fill="#fff" rx="15.5"/><path fill="#085B69" d="M17.225 8.295h9.233L19.67 18.478h-9.232l6.787-10.183Z"/><path fill="#FC5F2A" d="M17.63 19.421 15 23.365h9.671l6.788-10.182H24.32l-4.158 6.238H17.63Z"/><path fill="#060607" d="M37.608 21.5v-9.957h4.024c.097 0 .217.004.36.014.142.004.278.018.407.041.553.088 1.014.277 1.383.567.374.29.653.657.837 1.1.184.442.277.93.277 1.465 0 .793-.203 1.478-.609 2.054-.406.572-1.014.929-1.825 1.072l-.588.07h-2.821V21.5h-1.445Zm5.822 0-1.964-4.052 1.459-.373 2.157 4.425H43.43Zm-4.377-4.944h2.524c.092 0 .193-.005.304-.014a2.31 2.31 0 0 0 .325-.048 1.42 1.42 0 0 0 .712-.38c.18-.19.309-.406.387-.65a2.325 2.325 0 0 0 0-1.459 1.618 1.618 0 0 0-.387-.644 1.394 1.394 0 0 0-.712-.387 1.773 1.773 0 0 0-.325-.055 3.697 3.697 0 0 0-.304-.014h-2.524v3.651Zm10.377 5.151c-.747 0-1.394-.168-1.943-.504a3.401 3.401 0 0 1-1.272-1.39c-.295-.595-.443-1.28-.443-2.054 0-.779.152-1.463.457-2.053a3.344 3.344 0 0 1 1.279-1.383c.548-.332 1.19-.498 1.922-.498.747 0 1.395.168 1.943.504.549.337.973.8 1.272 1.39.3.59.45 1.27.45 2.04 0 .78-.152 1.466-.456 2.06a3.4 3.4 0 0 1-1.273 1.39c-.548.332-1.194.498-1.936.498Zm0-1.362c.715 0 1.247-.24 1.597-.719.355-.484.533-1.106.533-1.867 0-.779-.18-1.401-.54-1.867-.355-.47-.885-.705-1.59-.705-.484 0-.883.11-1.196.332a1.922 1.922 0 0 0-.699.906c-.152.382-.228.827-.228 1.334 0 .784.18 1.41.54 1.88.36.471.887.706 1.583.706Zm8.013 1.362c-.747 0-1.395-.168-1.944-.504a3.401 3.401 0 0 1-1.272-1.39c-.295-.595-.442-1.28-.442-2.054 0-.779.152-1.463.456-2.053a3.346 3.346 0 0 1 1.28-1.383c.548-.332 1.189-.498 1.922-.498.746 0 1.394.168 1.943.504.548.337.972.8 1.272 1.39.3.59.45 1.27.45 2.04 0 .78-.153 1.466-.457 2.06-.3.59-.724 1.054-1.272 1.39-.549.332-1.194.498-1.936.498Zm0-1.362c.714 0 1.247-.24 1.597-.719.355-.484.532-1.106.532-1.867 0-.779-.18-1.401-.54-1.867-.354-.47-.884-.705-1.59-.705-.483 0-.882.11-1.196.332a1.922 1.922 0 0 0-.698.906c-.152.382-.228.827-.228 1.334 0 .784.18 1.41.539 1.88.36.471.887.706 1.584.706Zm5.454 1.155v-7.73c0-.19.006-.39.02-.602.014-.217.053-.429.118-.636a1.61 1.61 0 0 1 .339-.581 1.65 1.65 0 0 1 .622-.443 2.24 2.24 0 0 1 .67-.152c.227-.014.434-.02.623-.02h.94v1.189h-.87c-.342 0-.598.085-.768.256-.166.165-.25.403-.25.712V21.5h-1.444Zm-1.238-6.306v-1.162h4.57v1.162h-4.57Zm6.023-2.386v-1.403h1.445v1.403h-1.445Zm0 8.692v-7.468h1.445V21.5h-1.445Zm8.35 0v-3.672c0-.29-.024-.587-.075-.892a2.673 2.673 0 0 0-.277-.857 1.623 1.623 0 0 0-.574-.636c-.244-.162-.564-.242-.96-.242a2.04 2.04 0 0 0-.734.131c-.23.083-.433.219-.608.408-.17.19-.307.438-.408.747-.097.309-.145.684-.145 1.127l-.9-.339c0-.677.127-1.274.381-1.79a2.86 2.86 0 0 1 1.093-1.218c.474-.29 1.048-.435 1.721-.435.517 0 .95.083 1.3.248.35.166.634.385.85.657.222.268.39.56.505.879.116.318.194.629.236.933.041.304.062.572.062.802V21.5h-1.466Zm-5.247 0v-7.468h1.293v2.157h.173V21.5h-1.466Zm8.238-8.692v-1.403h1.446v1.403h-1.446Zm0 8.692v-7.468h1.446V21.5h-1.446Zm7.38 0a6.19 6.19 0 0 1-1.383.118 3.131 3.131 0 0 1-1.21-.263 1.65 1.65 0 0 1-.802-.76 2.225 2.225 0 0 1-.262-.941 35.89 35.89 0 0 1-.014-1.093v-6.603h1.452v6.534c0 .3.002.56.007.781a1.2 1.2 0 0 0 .145.56c.166.286.429.45.788.492.364.036.79.02 1.28-.049V21.5ZM81.3 15.194v-1.162h5.103v1.162H81.3Zm7.07 9.625 1.445-3.934.02 1.161-3.256-8.014h1.507l2.434 6.189h-.442l2.323-6.189h1.466L89.746 24.82H88.37Z"/></svg>