<svg xmlns="http://www.w3.org/2000/svg" width="30" height="30" fill="none"><path stroke="#085B69" stroke-linejoin="round" stroke-width="1.875" d="M18.633 21.837a1.35 1.35 0 0 1 .639-.88c2.313-1.392 3.853-3.662 3.853-6.582a8.125 8.125 0 1 0-16.25 0c0 2.92 1.54 5.19 3.853 6.582.324.195.565.509.64.88l.306 1.533a1.25 1.25 0 0 0 1.226 1.005h4.2a1.25 1.25 0 0 0 1.226-1.005l.307-1.533Z"/><path stroke="#085B69" stroke-linecap="round" stroke-linejoin="round" stroke-width="1.875" d="M26.25 14.375h.625m-23.75 0h.625M22.954 6.42l.442-.442M6.25 23.125l.625-.625m16.25 0 .625.625M6.604 5.979l.442.442M15 3.125V2.5"/><path stroke="#085B69" stroke-linejoin="round" stroke-width="1.875" d="M17.5 24.375v1.875c0 .69-.56 1.25-1.25 1.25h-2.5c-.69 0-1.25-.56-1.25-1.25v-1.875"/></svg>