<svg xmlns="http://www.w3.org/2000/svg" width="30" height="30" fill="none"><path stroke="#085B69" stroke-linecap="round" stroke-linejoin="round" stroke-width="1.875" d="M20.34 3.017c-2.744-1.487-4.715.705-4.715.705s-1.97-2.192-4.715-.705C7.708 4.752 7.37 11.36 14.748 14.64a2.164 2.164 0 0 0 1.754 0c7.379-3.281 7.04-9.888 3.838-11.623ZM5 17.5h3.108a2.5 2.5 0 0 1 1.205.31l2.562 1.409h1.25c1.875 0 3.125 1.436 3.125 2.656l-3.355 1.118a1.25 1.25 0 0 1-.79 0L8.75 21.875m7.5-.625 5.263-1.755a2.5 2.5 0 0 1 3.112 1.444 1.096 1.096 0 0 1-.528 1.387l-9.481 4.74a2.5 2.5 0 0 1-1.799.17L5 25.025"/></svg>