<svg xmlns="http://www.w3.org/2000/svg" width="30" height="30" fill="none"><path stroke="#085B69" stroke-linecap="round" stroke-linejoin="round" stroke-width="1.875" d="m14.375 15 2.5 2.5L20 14.375l-5-5-3.125 3.125 2.5 2.5Zm0 0-3.125 3.125"/><path stroke="#085B69" stroke-linecap="round" stroke-width="1.875" d="M26.25 13.814v-6.16c0-.969-.732-1.773-1.681-1.938-3.825-.665-7-2.144-8.55-2.964a2.187 2.187 0 0 0-2.038 0c-1.55.82-4.725 2.3-8.55 2.964-.95.165-1.681.97-1.681 1.938v6.16c0 8.035 8.172 12.418 10.586 13.538.426.197.902.197 1.328 0 2.414-1.12 10.586-5.503 10.586-13.538Z"/></svg>