<svg xmlns="http://www.w3.org/2000/svg" width="30" height="30" fill="none"><path stroke="#085B69" stroke-linecap="round" stroke-linejoin="round" stroke-width="1.875" d="M15 2.5c6.905 0 12.5 5.597 12.5 12.5S21.905 27.5 15 27.5m-3.75-.625c-1.485-.506-2.88-1.237-4.096-2.192m0-19.366a14.16 14.16 0 0 1 4.096-2.192M2.5 12.808a12.03 12.03 0 0 1 1.62-4.132M2.5 17.192a12.03 12.03 0 0 0 1.62 4.132"/><path stroke="#085B69" stroke-linecap="round" stroke-linejoin="round" stroke-width="1.875" d="M18.75 11.25a3.75 3.75 0 1 0-7.5 0 3.75 3.75 0 0 0 7.5 0Z"/><path stroke="#085B69" stroke-linecap="round" stroke-linejoin="round" stroke-width="1.875" d="M21.25 21.25a6.25 6.25 0 0 0-12.5 0"/></svg>