<svg xmlns="http://www.w3.org/2000/svg" width="30" height="30" fill="none"><path stroke="#085B69" stroke-linecap="round" stroke-linejoin="round" stroke-width="1.875" d="M22.5 15h-10c-.69 0-1.25-.56-1.25-1.25v-10c0-.69.56-1.25 1.25-1.25h10c.69 0 1.25.56 1.25 1.25v10c0 .69-.56 1.25-1.25 1.25Zm-6.25-8.75h2.5M5 17.5h3.108a2.5 2.5 0 0 1 1.205.31l2.562 1.409h1.25c1.875 0 3.125 1.436 3.125 2.656l-3.355 1.118a1.25 1.25 0 0 1-.79 0L8.75 21.875m7.5-.625 5.263-1.755a2.5 2.5 0 0 1 3.112 1.444 1.096 1.096 0 0 1-.528 1.387l-9.481 4.74a2.5 2.5 0 0 1-1.799.17L5 25.025"/></svg>