<svg xmlns="http://www.w3.org/2000/svg" width="24" height="24" fill="none"><path stroke="#085B69" stroke-width="1.5" d="M6.565 19.56a1.5 1.5 0 1 1-2.122-2.121 1.5 1.5 0 0 1 2.122 2.122Z"/><path stroke="#085B69" stroke-linecap="round" stroke-linejoin="round" stroke-width="1.5" d="M6.004 12h.371a2 2 0 0 1 1.415.586l3.628 3.628a2 2 0 0 1 .586 1.414V18m-1.494-3 8.046-6.626a2.01 2.01 0 0 0 .673-1.066l.765-3.058a.201.201 0 0 0-.244-.244l-3.058.765a2.01 2.01 0 0 0-1.066.673L9 13.49m4.91-10.597C12.86 2.298 12.334 2 12 2c-.334 0-.859.297-1.908.892-1.015.576-2.078.932-3.116 1.151-2.06.436-3.09.653-3.533 1.19C3 5.77 3 6.613 3 8.297v1.665M12 22c.313 0 .625-.041.928-.124.49-.133.952-.42 1.875-.996 2.062-1.284 3.093-1.925 3.875-2.75a8.47 8.47 0 0 0 2.026-3.57c.25-.903.29-1.877.296-3.56"/><path stroke="#085B69" stroke-linejoin="round" stroke-width="1.5" d="m6.5 17.5 3-3"/></svg>