<svg xmlns="http://www.w3.org/2000/svg" width="24" height="24" fill="none"><path fill="#085B69" d="M18.192 16.446c.516-.298.774-.446 1.058-.446.284 0 .542.148 1.058.446l.634.364c.516.297.774.445.916.69.142.245.142.542.142 1.136v.728c0 .594 0 .891-.142 1.136-.142.245-.4.393-.916.69l-.634.364c-.516.298-.774.446-1.058.446-.284 0-.542-.148-1.058-.446l-.634-.364c-.516-.297-.774-.445-.916-.69-.142-.245-.142-.542-.142-1.136v-.728c0-.594 0-.891.142-1.136.142-.245.4-.393.916-.69l.634-.364Zm-14.5 0c.516-.298.774-.446 1.058-.446.284 0 .542.148 1.058.446l.634.364c.516.297.774.445.916.69.142.245.142.542.142 1.136v.728c0 .594 0 .891-.142 1.136-.142.245-.4.393-.916.69l-.634.364c-.516.298-.774.446-1.058.446-.284 0-.542-.148-1.058-.446l-.634-.364c-.516-.297-.774-.445-.916-.69C2 20.255 2 19.958 2 19.364v-.728c0-.594 0-.891.142-1.136.142-.245.4-.393.916-.69l.634-.364Z" opacity=".4"/><path stroke="#085B69" stroke-width="1.5" d="m12 13 5 4.5M12 13l-5 4.5m5-4.5V8m6.192 8.446c.516-.298.774-.446 1.058-.446.284 0 .542.148 1.058.446l.634.364c.516.297.774.445.916.69.142.245.142.542.142 1.136v.728c0 .594 0 .891-.142 1.136-.142.245-.4.393-.916.69l-.634.364c-.516.298-.774.446-1.058.446-.284 0-.542-.148-1.058-.446l-.634-.364c-.516-.297-.774-.445-.916-.69-.142-.245-.142-.542-.142-1.136v-.728c0-.594 0-.891.142-1.136.142-.245.4-.393.916-.69l.634-.364Zm-14.5 0c.516-.298.774-.446 1.058-.446.284 0 .542.148 1.058.446l.634.364c.516.297.774.445.916.69.142.245.142.542.142 1.136v.728c0 .594 0 .891-.142 1.136-.142.245-.4.393-.916.69l-.634.364c-.516.298-.774.446-1.058.446-.284 0-.542-.148-1.058-.446l-.634-.364c-.516-.297-.774-.445-.916-.69C2 20.255 2 19.958 2 19.364v-.728c0-.594 0-.891.142-1.136.142-.245.4-.393.916-.69l.634-.364Zm7.249-14C11.458 2.149 11.716 2 12 2c.284 0 .542.149 1.059.446l.633.364c.516.297.774.445.916.69.142.245.142.542.142 1.136v.728c0 .594 0 .891-.142 1.136-.142.245-.4.393-.917.69l-.633.364C12.543 7.851 12.285 8 12 8c-.284 0-.542-.149-1.059-.446l-.633-.364c-.516-.297-.774-.445-.916-.69-.142-.245-.142-.542-.142-1.136v-.728c0-.594 0-.891.142-1.136.142-.245.4-.393.917-.69l.633-.364Z"/></svg>